<svg width="1280" height="800" xmlns="http://www.w3.org/2000/svg">
  <defs>
    <linearGradient id="gradient" x1="0" y1="0" x2="1" y2="1">
      <stop offset="0%" stop-color="LightGreen" />
      <stop offset="100%" stop-color="RoyalBlue" />
    </linearGradient>
    <filter id="shadow" x="-20%" y="-20%" width="140%" height="140%">
      <feDropShadow dx="16" dy="16" stdDeviation="16" flood-color="black" flood-opacity="0.4"/>
    </filter>
    <marker id="arrowhead" viewBox="0 0 15 10" refX="10" refY="5"
            markerUnits="strokeWidth" markerWidth="7.5" markerHeight="4.5" orient="auto">
      <path d="M 0 0 L 15 5 L 0 10 z" stroke="none" fill="red"/>
    </marker>
  </defs>

  <rect width="1280" height="800" fill="url(#gradient)" />

  <g filter="url(#shadow)">
    <rect x="120" y="120" width="1040" height="80" fill="gray" rx="20" ry="20" />
    <rect x="120" y="160" width="1040" height="40" fill="gray" />
    <line x1="944" y1="160" x2="976" y2="160" stroke="white" stroke-width="4" />
    <rect x="1024" y="148" width="24" height="24" fill="none" stroke="white" stroke-width="4" />
    <line x1="1096" y1="148" x2="1120" y2="172" stroke="white" stroke-width="4" />
    <line x1="1120" y1="148" x2="1096" y2="172" stroke="white" stroke-width="4" />

    <rect x="120" y="200" width="1040" height="240" fill="white" rx="0" ry="0" />
    <rect x="120" y="200" width="1040" height="480" fill="white" rx="20" ry="20" />

    <line x1="370" y1="380" x2="900" y2="380" stroke="red" stroke-width="6" marker-end="url(#arrowhead)" />
    <text x="640" y="468" text-anchor="middle" fill="gray" font-size="80" font-family="Arial">Mouse Gesture</text>
  </g>
</svg>